<svg xmlns="http://www.w3.org/2000/svg" width="38.719" height="32.122" viewBox="0 0 38.719 32.122"><g transform="translate(1 1)"><path d="M1-1H35.719a2,2,0,0,1,2,2V23.057a2,2,0,0,1-2,2H1a2,2,0,0,1-2-2V1A2,2,0,0,1,1-1ZM35.719,23.057V1H1V23.057Z" fill="#dcdcdc"/><rect width="26" height="3" rx="1" transform="translate(5.251 28.122)" fill="#dcdcdc"/><g transform="translate(12.582 6.092)"><path d="M17.8,12.375a.885.885,0,0,1,.928.835v8.347a.933.933,0,0,1-1.855,0V13.21A.885.885,0,0,1,17.8,12.375Z" transform="translate(-12.133 -10.519)" fill="#dcdcdc" fill-rule="evenodd"/><path d="M16.136,10.4a.928.928,0,0,1,1.313,0l4.741,4.741a.929.929,0,1,1-1.313,1.313l-4.084-4.086-4.084,4.085A.929.929,0,0,1,11.4,15.136L16.136,10.4Z" transform="translate(-11.123 -10.123)" fill="#dcdcdc" fill-rule="evenodd"/></g></g></svg>