<svg xmlns="http://www.w3.org/2000/svg" width="31.5" height="31.5" viewBox="0 0 31.5 31.5">
  <path id="icon_micOff" d="M10.124,31.5V29.249h4.5V26.933a10.017,10.017,0,0,1-5.794-2.679L1.586,31.5,0,29.913,29.913,0,31.5,1.6,21.375,11.723v5.152a5.625,5.625,0,0,1-9.349,4.2l-1.6,1.587a7.875,7.875,0,0,0,13.2-5.782V13.5h2.249v3.374a10.125,10.125,0,0,1-9,10.058v2.316h4.5V31.5Zm-4.5-14.625V13.5H7.875v3.734l-1.97,1.99A10.2,10.2,0,0,1,5.625,16.875Zm4.5-11.249a5.625,5.625,0,0,1,10.98-1.6l-10.98,10.98Z" fill="#dc2b2b"/>
</svg>
