<svg xmlns="http://www.w3.org/2000/svg" width="108" height="108" viewBox="0 0 108 108"><path d="M6505.008-4691.993a53.661,53.661,0,0,1-21.02-4.244,53.809,53.809,0,0,1-17.165-11.573,53.812,53.812,0,0,1-11.573-17.164,53.661,53.661,0,0,1-4.244-21.02,53.659,53.659,0,0,1,4.244-21.019,53.825,53.825,0,0,1,11.573-17.165,53.81,53.81,0,0,1,17.165-11.573,53.661,53.661,0,0,1,21.02-4.244,53.659,53.659,0,0,1,21.019,4.244,53.829,53.829,0,0,1,17.164,11.573,53.821,53.821,0,0,1,11.573,17.165,53.659,53.659,0,0,1,4.244,21.019,53.661,53.661,0,0,1-4.244,21.02,53.8,53.8,0,0,1-11.573,17.164,53.812,53.812,0,0,1-17.164,11.573A53.659,53.659,0,0,1,6505.008-4691.993Zm0-49.429a33.958,33.958,0,0,0-16.777,4.034c-4.48,2.6-6.948,6.059-6.948,9.737,0,3.491,2.208,5.606,6.948,6.659,4.3.955,10.362.955,16.777.955s12.473,0,16.776-.955c4.741-1.052,6.949-3.168,6.949-6.659,0-3.678-2.468-7.136-6.949-9.737A33.955,33.955,0,0,0,6505.008-4741.422Zm0-30.526a13.787,13.787,0,0,0-13.771,13.771,13.786,13.786,0,0,0,13.771,13.77,13.785,13.785,0,0,0,13.77-13.77A13.786,13.786,0,0,0,6505.008-4771.948Z" transform="translate(-6451.007 4799.993)" fill="#b4b4b4"/></svg>