<svg xmlns="http://www.w3.org/2000/svg" width="33.782" height="30" viewBox="0 0 33.782 30"><path d="M28,30H2a2,2,0,0,1-2-2V2A2,2,0,0,1,2,0H23.745l-2,2H2V28H28V17.783l2-2V28A2,2,0,0,1,28,30Z" fill="#39b44a"/><path d="M3.123,26.242A.844.844,0,0,1,2.4,25.82L.13,22.012A.925.925,0,0,1,0,21.538V6.73H6V21.538a.929.929,0,0,1-.108.435l-2.02,3.807a.856.856,0,0,1-.727.461ZM6,4.936H0V1.795A1.758,1.758,0,0,1,1.714,0H4.285A1.758,1.758,0,0,1,6,1.795v3.14Z" transform="translate(29.539 0.514) rotate(45)" fill="#39b44a"/><rect width="9" height="2" transform="translate(5.468 7)" fill="#39b44a"/><rect width="6" height="2" transform="translate(5.468 13)" fill="#39b44a"/></svg>
