<svg xmlns="http://www.w3.org/2000/svg" width="42.961" height="42.961" viewBox="0 0 42.961 42.961"><path d="M30.377,23.991a7.121,7.121,0,0,1-.216,1.521,8.562,8.562,0,0,1-.453,1.478,5.787,5.787,0,0,1-2.632,2.287,8.364,8.364,0,0,1-4.013,1.1A8.61,8.61,0,0,1,21.92,30.3a8.748,8.748,0,0,1-1.24-.27q-.679-.195-1.014-.313t-1.2-.442q-.862-.324-1.057-.388A19.532,19.532,0,0,1,13.635,27.1a32.527,32.527,0,0,1-5.7-4.66,32.527,32.527,0,0,1-4.66-5.7,19.564,19.564,0,0,1-1.791-3.775q-.065-.194-.388-1.057t-.442-1.2Q.539,10.378.345,9.7a8.942,8.942,0,0,1-.27-1.24A8.413,8.413,0,0,1,0,7.314,8.368,8.368,0,0,1,1.1,3.3,5.787,5.787,0,0,1,3.387.669,8.594,8.594,0,0,1,4.865.216,7.112,7.112,0,0,1,6.386,0a1.2,1.2,0,0,1,.453.065Q7.227.194,7.983,1.7q.237.41.647,1.165t.755,1.37q.345.615.669,1.154.065.086.377.539A6.144,6.144,0,0,1,10.9,6.7a1.393,1.393,0,0,1,.151.615,1.79,1.79,0,0,1-.615,1.078A10.539,10.539,0,0,1,9.094,9.58a13.019,13.019,0,0,0-1.337,1.143,1.644,1.644,0,0,0-.615.992,1.455,1.455,0,0,0,.108.485q.108.291.183.442t.3.518q.227.367.248.41a22.642,22.642,0,0,0,3.754,5.07A22.642,22.642,0,0,0,16.807,22.4q.043.022.41.248t.518.3a4.53,4.53,0,0,0,.442.183,1.484,1.484,0,0,0,.485.108,1.644,1.644,0,0,0,.992-.615A13.019,13.019,0,0,0,20.8,21.284a10.539,10.539,0,0,1,1.186-1.337,1.79,1.79,0,0,1,1.078-.615,1.409,1.409,0,0,1,.615.151,6.009,6.009,0,0,1,.766.464q.453.313.539.377.539.324,1.154.669t1.37.755q.755.41,1.165.647,1.51.755,1.64,1.143a1.2,1.2,0,0,1,.065.453Z" transform="translate(42.961 21.48) rotate(135)" fill="#dc2b2b"/></svg>