<svg xmlns="http://www.w3.org/2000/svg" width="22.748" height="22.783" viewBox="0 0 22.748 22.783"><g transform="translate(-1783.999 -17)"><path d="M11.39,22.783A11.392,11.392,0,0,1,3.336,3.336,11.4,11.4,0,0,1,16.528,1.222a11.5,11.5,0,0,1,3.926,3.269L19.122,5.633a9.809,9.809,0,0,0-.916-1.057A9.638,9.638,0,1,0,4.575,18.206a9.64,9.64,0,0,0,13.631,0,9.5,9.5,0,0,0,2.784-5.939h1.758A11.393,11.393,0,0,1,11.39,22.783Z" transform="translate(1784 17)" fill="#fff"/><path d="M6.708,0V7.223H0Z" transform="translate(1799.483 17.637)" fill="#fff"/></g></svg>