<svg id="Group_9" data-name="Group 9" xmlns="http://www.w3.org/2000/svg" xmlns:xlink="http://www.w3.org/1999/xlink" width="120.805" height="36" viewBox="0 0 120.805 36">
  <defs>
    <clipPath id="clip-path">
      <rect id="Rectangle_7" data-name="Rectangle 7" width="120.805" height="36" fill="none"/>
    </clipPath>
  </defs>
  <g id="Group_8" data-name="Group 8" clip-path="url(#clip-path)">
    <path id="Path_6" data-name="Path 6" d="M189.278,12.373a9.883,9.883,0,0,0,4.265,1.024c1.511,0,2.242-.511,2.242-1.34,0-.8-.731-1.243-2.583-1.877-2.778-1-4.631-2.511-4.631-4.948,0-2.9,2.462-5.142,6.605-5.142a10.958,10.958,0,0,1,4.436.828l-.926,3.535a8.55,8.55,0,0,0-3.558-.78c-1.34,0-2.072.488-2.072,1.219,0,.829.878,1.146,2.95,1.925,2.949,1.1,4.266,2.657,4.266,4.948,0,2.827-2.195,5.24-7,5.24a11.655,11.655,0,0,1-4.826-1Z" transform="translate(-134.613 -0.064)" fill="#39b44a"/>
    <path id="Path_7" data-name="Path 7" d="M236.745,4.644h-4.192V.939h12.869v3.7h-4.266V17.367h-4.411Z" transform="translate(-166.118 -0.671)" fill="#39b44a"/>
    <path id="Path_8" data-name="Path 8" d="M305.966,16.7a8.844,8.844,0,0,1-.9-1,7.455,7.455,0,0,1-4.387,1.268c-4.314,0-6.021-2.462-6.021-4.656a5.155,5.155,0,0,1,3.1-4.7V7.533a4.619,4.619,0,0,1-1.219-3.047c0-2.121,1.731-4.485,5.289-4.485,2.755,0,4.8,1.56,4.8,4.022,0,1.633-.975,3.071-3.1,4.144v.1c.731.8,1.511,1.755,2.169,2.413a10.3,10.3,0,0,0,1.34-3.656h3.876a12,12,0,0,1-2.877,6.313c.975,1.122,1.951,2.267,2.974,3.364Zm-4.68-2.9a2.886,2.886,0,0,0,1.754-.536c-1.048-.975-2.169-2.267-3.314-3.534a2.228,2.228,0,0,0-.926,1.828,2.28,2.28,0,0,0,2.462,2.242Zm.39-11.091a1.271,1.271,0,0,0-1.219,1.366,2.914,2.914,0,0,0,1.072,2.1c1-.755,1.39-1.316,1.39-2.047A1.3,1.3,0,0,0,301.7,2.707Z" transform="translate(-210.48 -0.001)" fill="#39b44a"/>
    <path id="Path_9" data-name="Path 9" d="M5.216,84,0,67.57H4.826l1.755,6.459c.512,1.853.95,3.656,1.365,5.752h.049c.391-2,.853-3.9,1.341-5.679l1.779-6.532h4.68L10.432,84Z" transform="translate(0 -48.267)" fill="#39b44a"/>
    <path id="Path_10" data-name="Path 10" d="M61.7.937a8.57,8.57,0,0,0-8.833,8.507V9.49a8.385,8.385,0,0,0,6.922,8.279V13.4a4.421,4.421,0,0,1-2.274-3.954V9.4a4.168,4.168,0,0,1,4.137-4.368,4.251,4.251,0,0,1,4.208,4.417V9.49a4.328,4.328,0,0,1-2.3,3.945V17.76a8.47,8.47,0,0,0,6.922-8.316V9.4A8.489,8.489,0,0,0,61.7.937" transform="translate(-37.766 -0.669)" fill="#39b44a"/>
    <path id="Path_11" data-name="Path 11" d="M63.622,67.077v4.357a4.408,4.408,0,0,1,2.32,3.977v.046a4.172,4.172,0,0,1-4.159,4.368A4.244,4.244,0,0,1,57.6,75.41v-.049a4.34,4.34,0,0,1,2.248-3.925V67.1a8.469,8.469,0,0,0-6.9,8.313v.046a8.815,8.815,0,0,0,17.618-.046v-.049a8.385,8.385,0,0,0-6.945-8.285" transform="translate(-37.823 -47.915)" fill="#fff"/>
    <path id="Path_12" data-name="Path 12" d="M127.422.937a8.57,8.57,0,0,0-8.833,8.507V9.49a8.385,8.385,0,0,0,6.922,8.279V13.4a4.424,4.424,0,0,1-2.271-3.954V9.4a4.166,4.166,0,0,1,4.137-4.368,4.249,4.249,0,0,1,4.205,4.417V9.49a4.328,4.328,0,0,1-2.3,3.945V17.76a8.47,8.47,0,0,0,6.922-8.316V9.4A8.489,8.489,0,0,0,127.422.937" transform="translate(-84.711 -0.669)" fill="#fff"/>
    <path id="Path_13" data-name="Path 13" d="M129.342,67.077v4.357a4.408,4.408,0,0,1,2.32,3.977v.046a4.172,4.172,0,0,1-4.159,4.368,4.244,4.244,0,0,1-4.182-4.414v-.049a4.343,4.343,0,0,1,2.248-3.925V67.1a8.469,8.469,0,0,0-6.9,8.313v.046a8.815,8.815,0,0,0,17.618-.046v-.049a8.385,8.385,0,0,0-6.945-8.285" transform="translate(-84.768 -47.915)" fill="#39b44a"/>
    <path id="Path_14" data-name="Path 14" d="M185.339,67.537a35.765,35.765,0,0,1,5.311-.366c2.509,0,4.311.341,5.555,1.291a4.212,4.212,0,0,1,1.608,3.557,4.409,4.409,0,0,1-2.8,3.971v.073a4.243,4.243,0,0,1,2.1,2.948c.487,1.68,1.023,4.069,1.34,4.7h-4.483a20.027,20.027,0,0,1-1.145-3.8c-.439-1.949-1.048-2.363-2.413-2.363H189.7v6.164h-4.361Zm4.361,6.845h1.145c1.657,0,2.606-.8,2.606-2.022s-.8-1.925-2.265-1.925a7.6,7.6,0,0,0-1.486.1Z" transform="translate(-132.392 -47.982)" fill="#39b44a"/>
    <path id="Path_15" data-name="Path 15" d="M236.525,71.3h-4.191V67.6H245.2v3.7h-4.264V84.018h-4.409Z" transform="translate(-165.962 -48.287)" fill="#39b44a"/>
    <rect id="Rectangle_6" data-name="Rectangle 6" width="4.409" height="16.42" transform="translate(84.867 19.311)" fill="#39b44a"/>
    <path id="Path_16" data-name="Path 16" d="M320.957,84.018V67.6h5.189l2.607,5.043a48.073,48.073,0,0,1,2.583,5.75h.073a61.829,61.829,0,0,1-.341-6.895V67.6h4.019v16.42h-4.629l-2.8-5.457c-.9-1.73-1.973-3.947-2.752-5.921h-.1c.122,2.217.171,4.678.171,7.333v4.044Z" transform="translate(-229.267 -48.287)" fill="#39b44a"/>
    <path id="Path_17" data-name="Path 17" d="M389.528,82.97a10.475,10.475,0,0,1-4.117.682c-6.14,0-8.844-3.825-8.844-8.186,0-5.774,4.239-8.722,9.136-8.722a10.346,10.346,0,0,1,4.094.706l-.853,3.484a7.908,7.908,0,0,0-3.045-.585,4.427,4.427,0,0,0-4.7,4.824A4.437,4.437,0,0,0,386,80a9.077,9.077,0,0,0,2.923-.463Z" transform="translate(-268.991 -47.677)" fill="#39b44a"/>
  </g>
</svg>
